<svg height="511pt" viewBox="-27 1 511 511" width="511pt" xmlns="http://www.w3.org/2000/svg"><path d="m428.261719 205.828125c0 18.984375-15.386719 34.371094-34.367188 34.371094s-34.367187-15.386719-34.367187-34.371094c0-18.980469 15.386718-34.367187 34.367187-34.367187s34.367188 15.386718 34.367188 34.367187zm0 0" fill="#cc9883"/><path d="m97.867188 205.828125c0 18.984375-15.386719 34.371094-34.367188 34.371094s-34.367188-15.386719-34.367188-34.371094c0-18.980469 15.386719-34.367187 34.367188-34.367187s34.367188 15.386718 34.367188 34.367187zm0 0" fill="#cc9883"/><path d="m70.523438 504.5c0-87.355469 70.816406-158.171875 158.175781-158.171875 87.355469 0 158.171875 70.816406 158.171875 158.171875zm0 0" fill="#5c626b"/><path d="m182.066406 407.984375c10.398438 14.351563 26.367188 30.015625 46.542969 30.015625 20.171875 0 36.144531-15.664062 46.542969-30.015625 6.285156 5.933594 14.558594 10.242187 25.027344 10.242187 13.109374 0 25.128906-9.539062 36.679687-29.125-28.289063-26.523437-66.324219-42.777343-108.160156-42.777343-41.894531 0-79.980469 16.296875-108.277344 42.882812 11.53125 19.511719 23.53125 29.019531 36.617187 29.019531 10.46875 0 18.742188-4.304687 25.027344-10.242187zm0 0" fill="#535860"/><path d="m259.109375 471h-61c-4.191406 0-7.589844-3.398438-7.589844-7.589844v-185.410156h76.175781v185.410156c.003907 4.191406-3.394531 7.589844-7.585937 7.589844zm0 0" fill="#dfe0e0"/><path d="m228.609375 278h-38.089844v185.410156c0 4.191406 3.398438 7.589844 7.589844 7.589844h30.5zm0 0" fill="#c9caca"/><path d="m190.519531 418.328125c9.875 10.632813 22.769531 19.671875 38.089844 19.671875s28.214844-9.039062 38.089844-19.671875v-140.328125h-76.179688zm0 0" fill="#c9caca"/><path d="m243.699219 347.039062c-4.941407-.464843-9.941407-.710937-15-.710937-87.359375 0-158.175781 70.816406-158.175781 158.171875h30c0-82.296875 62.855468-149.902344 143.175781-157.460938zm0 0" fill="#535860"/><path d="m61.785156 170.335938c-1.972656 10.355468-3.015625 21.042968-3.015625 31.976562 0 93.847656 76.078125 169.929688 169.925781 169.929688 93.851563 0 169.929688-76.082032 169.929688-169.929688 0-10.933594-1.042969-21.621094-3.019531-31.976562zm0 0" fill="#fbc4ac"/><path d="m398.621094 202c-.019532-10.824219-1.058594-21.40625-3.011719-31.667969h-333.824219c-1.953125 10.261719-2.992187 20.84375-3.011718 31.667969zm0 0" fill="#e3b098"/><path d="m396.019531 144.5h-44.0625s-.4375 127.164062-44.996093 127.164062c-44.558594 0-32.773438-52.417968-78.351563-52.417968s-33.789063 52.417968-78.351563 52.417968c-44.558593 0-44.996093-127.164062-44.996093-127.164062h-44.0625s-5.832031 49.097656-5.832031 79.832031c0 93.355469 32.246093 154.667969 45.289062 154.667969s19.710938-24.738281 19.710938-24.738281 18.011718 48.964843 36.671874 48.964843c18.660157 0 25.328126-24.226562 25.328126-24.226562s19.820312 44 46.242187 44 46.246094-44 46.246094-44 6.667969 24.226562 25.328125 24.226562 36.671875-48.964843 36.671875-48.964843 6.667969 24.738281 19.710937 24.738281c13.042969 0 45.289063-61.3125 45.289063-154.667969-.003907-30.734375-5.835938-79.832031-5.835938-79.832031zm0 0" fill="#e15f76"/><g fill="#bf5164"><path d="m56.09375 202h53.933594c-4.667969-29.640625-4.765625-57.5-4.765625-57.5h-44.0625s-3.542969 29.800781-5.105469 57.5zm0 0"/><path d="m401.125 202c-1.566406-27.699219-5.105469-57.5-5.105469-57.5h-44.0625s-.097656 27.859375-4.769531 57.5zm0 0"/><path d="m85.363281 224.335938c0-30.734376 5.832031-79.820313 5.832031-79.835938h-30s-5.832031 49.097656-5.832031 79.835938c0 93.351562 32.246094 154.664062 45.289063 154.664062 7.082031 0 12.277344-7.285156 15.550781-13.949219-14.203125-23.148437-30.839844-73.667969-30.839844-140.714843zm0 0"/></g><path d="m400.082031 156c-17.1875-78.808594-87.5-138-171.382812-138-83.886719 0-154.199219 59.191406-171.386719 138zm0 0" fill="#9b6a57"/><path d="m243.699219 18.640625c-4.945313-.421875-9.949219-.640625-15-.640625-83.886719 0-154.199219 59.191406-171.386719 138h30c16.152344-74.0625 79.222656-130.792969 156.386719-137.359375zm0 0" fill="#845a4a"/><path d="m254.449219 180h-51.5c-2.902344 0-5.25-2.351562-5.25-5.25v-162c0-2.898438 2.347656-5.25 5.25-5.25h51.5c2.898437 0 5.25 2.351562 5.25 5.25v162c0 2.898438-2.351563 5.25-5.25 5.25zm0 0" fill="#d9c477"/><path d="m13.691406 9.019531 11.558594 19.792969c15.121094 25.886719 41.886719 42.796875 71.75 45.34375 23.789062 2.027344 38.539062 26.839844 28.953125 48.703125-7.347656 16.753906-26.394531 24.976563-43.625 18.824219l-9.523437-3.398438c-34.117188-12.179687-57.9375-43.214844-60.875-79.320312l-3.917969-48.15625c-.265625-3.238282 4.039062-4.59375 5.679687-1.789063zm0 0" fill="#dfe0e0"/><path d="m9.515625 7.929688c-.941406.535156-1.613281 1.542968-1.503906 2.878906l3.917969 48.15625c2.9375 36.105468 26.757812 67.140625 60.875 79.320312l9.523437 3.398438c17.230469 6.152344 36.277344-2.070313 43.621094-18.824219 2.25-5.125 3.144531-10.414063 2.914062-15.53125-20.871093-4.34375-54.707031-11.515625-71.554687-15.828125-21.609375-5.53125-42.160156-65.777344-47.792969-83.570312zm0 0" fill="#c9caca"/><path d="m443.707031 9.019531-11.5625 19.792969c-15.121093 25.886719-41.882812 42.796875-71.75 45.34375-23.789062 2.027344-38.539062 26.839844-28.953125 48.703125 7.347656 16.753906 26.394532 24.976563 43.625 18.824219l9.523438-3.398438c34.117187-12.179687 57.9375-43.214844 60.875-79.320312l3.917968-48.15625c.265626-3.238282-4.039062-4.59375-5.675781-1.789063zm0 0" fill="#dfe0e0"/><path d="m447.878906 7.929688c.941406.535156 1.613282 1.542968 1.507813 2.878906l-3.921875 48.15625c-2.9375 36.105468-26.753906 67.140625-60.871094 79.320312l-9.527344 3.398438c-17.226562 6.152344-36.277344-2.070313-43.621094-18.824219-2.25-5.125-3.144531-10.414063-2.910156-15.53125 20.867188-4.34375 54.707032-11.515625 71.550782-15.828125 21.609374-5.53125 42.160156-65.777344 47.792968-83.570312zm0 0" fill="#c9caca"/><path d="m45.125 125h367.144531c4.929688 0 8.925781 3.996094 8.925781 8.929688v44.140624c0 4.933594-3.996093 8.929688-8.925781 8.929688h-367.144531c-4.929688 0-8.925781-3.996094-8.925781-8.929688v-44.140624c0-4.929688 3.996093-8.929688 8.925781-8.929688zm0 0" fill="#ffe78c"/><path d="m66.199219 178.070312v-44.140624c0-4.929688 3.996093-8.929688 8.925781-8.929688h-30c-4.929688 0-8.925781 4-8.925781 8.929688v44.140624c0 4.933594 3.996093 8.929688 8.925781 8.929688h30c-4.929688 0-8.925781-3.996094-8.925781-8.929688zm0 0" fill="#d9c477"/><path d="m308.289062 251.832031h-11.386718c-4.140625 0-7.5-3.359375-7.5-7.5 0-4.144531 3.359375-7.5 7.5-7.5h11.386718c4.144532 0 7.5 3.355469 7.5 7.5 0 4.140625-3.355468 7.5-7.5 7.5zm0 0" fill="#e15f76"/><path d="m160.492188 251.832031h-11.386719c-4.144531 0-7.5-3.359375-7.5-7.5 0-4.144531 3.355469-7.5 7.5-7.5h11.386719c4.140624 0 7.5 3.355469 7.5 7.5 0 4.140625-3.359376 7.5-7.5 7.5zm0 0" fill="#e15f76"/><path d="m249.242188 255.988281c-3.59375-2.0625-8.175782-.824219-10.242188 2.765625-2.117188 3.683594-6.0625 5.96875-10.300781 5.96875-4.242188 0-8.191407-2.285156-10.304688-5.96875-2.066406-3.589844-6.648437-4.828125-10.242187-2.765625-3.589844 2.0625-4.828125 6.648438-2.765625 10.238281 4.785156 8.324219 13.71875 13.496094 23.3125 13.496094 9.589843 0 18.519531-5.171875 23.304687-13.492187 2.066406-3.589844.828125-8.175781-2.761718-10.242188zm0 0"/><path d="m302.597656 203.917969c-4.144531 0-7.5 3.355469-7.5 7.5v11.386719c0 4.140624 3.355469 7.5 7.5 7.5 4.140625 0 7.5-3.359376 7.5-7.5v-11.386719c0-4.144531-3.359375-7.5-7.5-7.5zm0 0"/><path d="m154.796875 203.917969c-4.140625 0-7.5 3.355469-7.5 7.5v11.386719c0 4.140624 3.359375 7.5 7.5 7.5 4.144531 0 7.5-3.359376 7.5-7.5v-11.386719c0-4.144531-3.355469-7.5-7.5-7.5zm0 0"/><path d="m449.511719.496094c-4.730469-1.492188-9.78125.460937-12.285157 4.742187l-11.558593 19.792969c-13.761719 23.558594-38.125 39.0625-65.265625 41.589844-25.1875-26.140625-57.972656-44.421875-93.207032-52.03125v-1.839844c0-7.027344-5.71875-12.75-12.75-12.75h-51.5c-7.03125 0-12.75 5.722656-12.75 12.75v1.839844c-35.242187 7.609375-68.011718 25.882812-93.207031 52.03125-27.140625-2.527344-51.5-18.03125-65.261719-41.589844l-11.5625-19.792969c-2.5-4.28125-7.550781-6.234375-12.28125-4.742187-4.726562 1.488281-7.75 5.980468-7.347656 10.921875l3.917969 48.15625c1.9375 23.808593 12.386719 46.023437 29.148437 62.664062-3.023437 2.984375-4.90625 7.121094-4.90625 11.691407v44.140624c0 1.316407.171876 2.585938.464844 3.8125-4.871094 6.992188-7.527344 15.371094-7.527344 23.945313 0 17.554687 10.773438 32.929687 26.777344 39.074219 1.765625 34.167968 7.867188 67.058594 17.648438 94.304687 5.105468 14.222657 18.695312 47.292969 34.59375 47.292969 8.894531 0 15.320312-6.449219 19.667968-13.421875.671876 1.390625 1.390626 2.828125 2.140626 4.289063-37.839844 31.613281-59.4375 77.65625-59.4375 127.132812 0 4.140625 3.359374 7.5 7.5 7.5h316.347656c4.140625 0 7.5-3.359375 7.5-7.5 0-49.554688-21.644532-95.621094-59.566406-127.234375.734374-1.425781 1.433593-2.828125 2.089843-4.1875 4.347657 6.972656 10.773438 13.421875 19.667969 13.421875 15.902344 0 29.488281-33.070312 34.59375-47.292969 9.777344-27.230469 15.875-60.101562 17.644531-94.25 16.066407-6.117187 26.960938-21.644531 26.960938-39.128906 0-8.609375-2.652344-16.949219-7.53125-23.941406.292969-1.226563.464843-2.5.464843-3.816407v-44.140624c0-4.570313-1.878906-8.707032-4.902343-11.691407 16.761719-16.640625 27.210937-38.855469 29.148437-62.664062l3.917969-48.15625c.402344-4.941407-2.621094-9.433594-7.347656-10.921875zm-244.3125 14.503906h47v41.25c0 4.144531 3.355469 7.5 7.5 7.5 4.140625 0 7.5-3.355469 7.5-7.5v-26.28125c28.5 6.746094 55.117187 21.117188 76.582031 41.3125-6.871094 3.5625-12.6875 8.996094-16.824219 15.957031-5.539062 9.316407-7.253906 19.984375-5.066406 30.261719h-54.695313v-33.25c0-4.144531-3.355468-7.5-7.5-7.5-4.140624 0-7.5 3.355469-7.5 7.5v33.25h-47v-102.5zm-15 14.96875v87.53125h-54.695313c2.1875-10.277344.476563-20.941406-5.066406-30.261719-4.132812-6.957031-9.953125-12.394531-16.824219-15.953125 21.46875-20.203125 48.078125-34.566406 76.585938-41.316406zm-170.796875 28.386719-2.332032-28.675781 1.707032 2.917968c16.328125 27.953125 45.332031 46.28125 77.589844 49.03125.445312.039063.882812.09375 1.324218.152344.570313.167969 1.152344.257812 1.738282.285156 7.59375 1.496094 14.085937 6.054688 18.117187 12.835938 4.128906 6.949218 4.96875 15.058594 2.433594 22.597656h-69.203125c-18.089844-14.53125-29.484375-35.949219-31.375-59.144531zm28.460937 165.976562c0 1.128907.023438 2.25.035157 3.375-6.914063-4.917969-11.265626-12.949219-11.265626-21.878906 0-4.296875 1.058594-8.511719 3.003907-12.292969 1.71875.613282 3.5625.964844 5.488281.964844h3.917969c-.78125 11.710938-1.179688 21.722656-1.179688 29.832031zm331.324219 272.667969h-300.980469c2.015625-41.261719 20.601563-79.371094 51.894531-106.429688 8.945313 13.542969 17.804688 20.15625 26.9375 20.15625 12.460938 0 20.652344-7.628906 25.703126-15.164062.089843.148438.1875.304688.277343.453125v67.394531c0 8.320313 6.769531 15.089844 15.089844 15.089844h61c8.320313 0 15.085937-6.769531 15.085937-15.089844v-67.394531c.09375-.148437.191407-.304687.28125-.453125 5.050782 7.535156 13.242188 15.164062 25.703126 15.164062 9.152343 0 18.035156-6.648437 27-20.253906 31.371093 27.0625 49.992187 65.199219 52.007812 106.527344zm-181.167969-33.589844v-47.941406c6.542969 6.570312 14.316407 12.070312 23.089844 14.144531v33.886719h-23c-.050781 0-.089844-.039062-.089844-.089844zm38.089844.089844v-33.886719c8.773437-2.074219 16.546875-7.574219 23.085937-14.144531v47.941406c0 .050782-.039062.089844-.085937.089844zm120.015625-92.035156c-4.414062-.6875-9.917969-11.40625-12.03125-19.152344-.847656-3.15625-3.640625-5.394531-6.902344-5.542969-3.265625-.144531-6.246094 1.835938-7.375 4.898438-7.683594 20.839843-21.742187 44.058593-29.636718 44.058593-12.660157 0-18.046876-18.554687-18.09375-18.71875-.839844-3.042968-3.5-5.234374-6.648438-5.480468-3.152344-.238282-6.117188 1.507812-7.417969 4.386718-4.984375 11.011719-21.777343 39.585938-39.410156 39.585938s-34.425781-28.574219-39.40625-39.582031c-1.292969-2.871094-4.25-4.613281-7.398437-4.382813-3.140626.230469-5.808594 2.417969-6.664063 5.453125-.054687.1875-5.441406 18.738281-18.101563 18.738281-7.894531 0-21.953124-23.21875-29.636718-44.054687-1.128906-3.066406-4.105469-5.046875-7.375-4.902344-3.261719.144531-6.054688 2.386719-6.90625 5.542969-2.089844 7.753906-7.578125 18.472656-12.027344 19.152344-8.351562-4.230469-38.230469-56.925782-38.230469-147.132813 0-8.011719.410157-18.027343 1.214844-29.832031h37.289063c7.378906 56.1875 23.816406 84.667969 48.890624 84.667969 26.277344 0 36.648438-16.339844 44.984376-29.46875 8.140624-12.820313 14.570312-22.949219 33.367187-22.949219s25.226563 10.128906 33.367187 22.949219c8.335938 13.128906 18.707032 29.46875 44.984376 29.46875 25.082031 0 41.515624-28.484375 48.886718-84.667969h37.292969c.804687 11.804688 1.210937 21.820312 1.210937 29.832031 0 90.207031-29.875 142.902344-38.226562 147.132813zm44.125-191.964844h-83.652344c-4.144531 0-7.5 3.355469-7.5 7.5s3.355469 7.5 7.5 7.5h24.117188c-6.09375 44.40625-18.25 69.667969-33.753906 69.667969-18.03125 0-24.339844-9.933594-32.320313-22.507813-8.460937-13.324218-18.992187-29.910156-46.03125-29.910156s-37.570313 16.585938-46.03125 29.910156c-7.980469 12.574219-14.289063 22.507813-32.320313 22.507813-15.476562 0-27.652343-25.285157-33.75-69.667969h172.089844c4.140625 0 7.5-3.355469 7.5-7.5s-3.359375-7.5-7.5-7.5h-231.464844c-.101562 0-.203124-.003906-.304687 0h-11.703125c-.785156 0-1.425781-.640625-1.425781-1.429688v-44.140624c0-.789063.640625-1.429688 1.425781-1.429688h79.726562c.023438 0 .046876.003906.066407.003906s.039062-.003906.058593-.003906h207.324219.132813 76.675781c.03125 0 .058594.003906.085937.003906.023438 0 .042969-.003906.0625-.003906h3.007813c.789063 0 1.429687.640625 1.429687 1.429688v44.140624c0 .789063-.640624 1.429688-1.429687 1.429688h-11.929687c-.027344 0-.058594 0-.085938 0zm9.070312 48.320312c.007813-1.164062.03125-2.324218.03125-3.488281 0-8.109375-.394531-18.121093-1.175781-29.832031h4.09375c1.929688 0 3.773438-.351562 5.492188-.964844 1.945312 3.773438 3 7.976563 3 12.292969 0 8.9375-4.4375 17.066406-11.441407 21.992187zm28.667969-169.464843c-1.886719 23.195312-13.28125 44.613281-31.371093 59.144531h-69.199219c-2.539063-7.539062-1.699219-15.648438 2.429687-22.597656 4.566406-7.675782 12.285156-12.511719 21.179688-13.269532 32.257812-2.75 61.261718-21.082031 77.589844-49.035156l1.707031-2.917968zm0 0"/></svg>