<?xml version="1.0" encoding="iso-8859-1"?>
<!-- Generator: Adobe Illustrator 19.0.0, SVG Export Plug-In . SVG Version: 6.00 Build 0)  -->
<svg version="1.1" id="Layer_1" xmlns="http://www.w3.org/2000/svg" xmlns:xlink="http://www.w3.org/1999/xlink" x="0px" y="0px"
	 viewBox="0 0 512 512" style="enable-background:new 0 0 512 512;" xml:space="preserve">
<path style="fill:#F7434C;" d="M302.189,140.649c0.779,0.521,1.675,0.78,2.571,0.78c0.898,0,1.793-0.26,2.571-0.78
	c41.905-28.003,29.69-52.642,18.017-56.379c-2.097-0.67-4.068-0.979-5.9-0.979c-4.819,0-8.705,2.13-11.546,5.45
	c-0.901,1.054-2.196,1.597-3.48,1.597c-1.18,0-2.355-0.459-3.217-1.398c-2.983-3.251-6.772-5.573-11.601-5.573
	c-1.682,0-3.488,0.28-5.431,0.901C272.496,88.007,260.282,112.648,302.189,140.649z"/>
<path d="M286.807,163.668c5.336,3.564,11.543,5.445,17.953,5.445c6.412,0,12.619-1.883,17.952-5.443
	c14.576-9.741,25.475-20.403,32.394-31.693c7.354-11.996,10.324-24.848,8.594-37.168c-2.443-17.382-14.183-31.868-29.908-36.903
	c-4.779-1.526-9.598-2.298-14.342-2.298c-5.298,0-10.402,0.941-15.162,2.751c-4.672-1.758-9.617-2.673-14.681-2.673
	c-4.594,0-9.259,0.747-13.859,2.216c-15.738,5.037-27.482,19.523-29.925,36.907c-1.732,12.32,1.241,25.174,8.594,37.17
	C261.334,143.267,272.233,153.93,286.807,163.668z M284.173,84.27c1.943-0.621,3.75-0.901,5.431-0.901
	c4.829,0,8.618,2.322,11.601,5.573c0.862,0.94,2.038,1.398,3.217,1.398c1.284,0,2.576-0.542,3.48-1.597
	c2.841-3.32,6.727-5.45,11.546-5.45c1.834,0,3.803,0.311,5.9,0.979c11.672,3.737,23.888,28.376-18.017,56.379
	c-0.779,0.521-1.675,0.78-2.571,0.78c-0.898,0-1.793-0.26-2.571-0.78C260.282,112.648,272.496,88.007,284.173,84.27z"/>
<path style="fill:#F7434C;" d="M426.138,76.402c0.872,0.592,1.884,0.889,2.898,0.889c1.012,0,2.026-0.298,2.898-0.889
	c34.924-23.705,24.57-44.477,14.673-47.645c-1.789-0.573-3.471-0.836-5.035-0.836c-3.713,0-6.777,1.483-9.12,3.857
	c-1.024,1.035-2.348,1.55-3.677,1.55c-1.308,0-2.62-0.498-3.654-1.486c-2.4-2.289-5.36-3.852-9.018-3.852
	c-1.434,0-2.976,0.239-4.635,0.768C401.565,31.926,391.214,52.697,426.138,76.402z"/>
<path d="M410.592,99.309c5.462,3.708,11.84,5.667,18.445,5.667c6.604,0,12.984-1.96,18.445-5.667
	c35.531-24.116,37.713-49.377,35.849-62.286c-2.348-16.289-13.449-29.883-28.283-34.631c-4.478-1.431-9.006-2.154-13.475-2.154
	c-4.44,0-8.772,0.715-12.87,2.088c-4.013-1.336-8.24-2.021-12.6-2.023c-4.343,0-8.738,0.701-13.065,2.085
	c-14.842,4.75-25.947,18.343-28.297,34.633C372.877,49.931,375.059,75.193,410.592,99.309z M411.467,28.757
	c1.659-0.531,3.201-0.768,4.635-0.768c3.658,0,6.618,1.561,9.018,3.852c1.036,0.988,2.346,1.486,3.654,1.486
	c1.329,0,2.653-0.516,3.677-1.55c2.343-2.372,5.409-3.857,9.12-3.857c1.564,0,3.246,0.263,5.035,0.836
	c9.897,3.168,20.249,23.94-14.673,47.645c-0.872,0.592-1.886,0.889-2.898,0.889c-1.014,0-2.026-0.298-2.898-0.889
	C391.214,52.697,401.565,31.926,411.467,28.757z"/>
<path style="fill:#F7434C;" d="M445.093,254.27c21.383-29.415,7.378-51.841-6.163-56.177c-3.234-1.035-6.274-1.49-9.103-1.49
	c-6.893,0-12.555,2.839-16.835,7.335c-1.727,1.813-4.009,2.722-6.298,2.722c-2.23,0-4.468-0.855-6.203-2.568
	c-4.407-4.353-9.882-7.35-16.699-7.35c-2.594-0.002-5.379,0.394-8.378,1.351c-13.55,4.334-27.556,26.762-6.167,56.177h15.29H445.093
	z"/>
<g>
	<polygon style="fill:#F7434C;" points="285.336,281.954 261.356,281.954 198.822,373.866 198.822,482.665 285.336,482.665 	"/>
	<rect x="397.807" y="281.948" style="fill:#F7434C;" width="86.513" height="200.711"/>
</g>
<path d="M498.735,254.27h-21.637c5.76-12.112,7.866-25.572,6.092-37.978c-3.014-21.071-17.076-38.545-35.823-44.544
	c-5.874-1.877-11.773-2.819-17.54-2.819c-8.234,0-16.15,1.957-23.263,5.649c-7.047-3.64-14.735-5.52-22.77-5.52
	c-5.533-0.003-11.19,0.908-16.806,2.704c-18.756,5.999-32.821,23.452-35.837,44.525c-1.775,12.406,0.33,25.869,6.091,37.981h-37.486
	h-19.722l21.087-31.216c2.054-3.042,2.813-6.758,2.114-10.361c-0.701-3.604-2.803-6.772-5.847-8.826l-73.152-49.349
	c-6.335-4.275-14.943-2.602-19.216,3.734l-25.447,37.72c-7.684-4.712-16.436-7.217-25.468-7.217
	c-16.29,0-31.451,8.054-40.554,21.545c-6.457,9.574-10.589,20.412-13.188,31.209c-6.525-9.314-14.507-18.062-24.16-24.577
	c-8.11-5.471-17.552-8.362-27.305-8.362c-16.29,0-31.451,8.053-40.554,21.545c-15.071,22.343-9.158,52.784,13.183,67.859
	c9.786,6.603,20.877,10.762,31.859,13.347c-9.108,6.452-17.642,14.306-24.026,23.767c-7.302,10.823-9.952,23.841-7.463,36.661
	c2.35,12.105,9.027,22.658,18.881,29.946l-26.397,39.13c-2.054,3.044-2.813,6.779-2.114,10.382c0.701,3.604,2.803,6.783,5.847,8.835
	l73.152,49.352c2.374,1.602,5.066,2.369,7.731,2.369c4.445,0,8.525-2.139,11.198-6.101l60.945-90.761v81.686
	c0,7.644,6.774,13.763,14.418,13.763h114.198h84.783h114.198c7.644,0,13.266-6.118,13.266-13.763V268.192
	C512.001,260.548,506.379,254.27,498.735,254.27z M484.317,482.665h-86.513V281.954h86.513V482.665z M198.822,373.866l62.534-91.912
	h23.98v200.711h-86.513V373.866L198.822,373.866z M45.071,444.835l53.225-78.89l50.202,33.868l-53.223,78.89L45.071,444.835z
	 M49.073,366.471c-1.08-5.558,0.069-11.203,3.236-15.898c10.174-15.081,29.323-25.139,43.873-31.001l-13.096,19.414l-0.002,0.002
	l-26.79,39.71C52.551,375.583,50.014,371.316,49.073,366.471z M31.293,245.6c3.947-5.852,10.529-9.343,17.604-9.343
	c4.215,0,8.304,1.254,11.821,3.628c16.387,11.056,26.857,32.721,32.441,47.555c-1.395,0.04-2.85,0.059-4.362,0.059
	c-15.19,0-36.509-2.163-51.789-12.472C27.322,268.49,24.758,255.288,31.293,245.6z M154.104,216.441
	c3.495,0,6.893,0.874,9.961,2.519l-40.061,59.379c-0.026-16.396,2.497-37.734,12.498-52.553
	C140.448,219.933,147.029,216.441,154.104,216.441z M270.428,219.085l-52.256,77.455l-50.204-33.87l52.256-77.454L270.428,219.085z
	 M152.486,285.621l50.202,33.868l-38.706,57.374l-50.204-33.868L152.486,285.621z M375.415,198.094
	c2.999-0.957,5.784-1.372,8.378-1.37c6.817,0,12.292,3.009,16.699,7.361c1.735,1.713,3.973,2.576,6.203,2.576
	c2.287,0,4.571-0.901,6.298-2.713c4.281-4.499,9.94-7.324,16.835-7.324c2.829,0,5.869,0.438,9.103,1.472
	c13.541,4.334,27.548,26.762,6.163,56.177h-60.556h-15.29C347.859,224.856,361.866,202.43,375.415,198.094z M313.02,281.954h57.099
	v200.711H313.02V281.954z"/>
<g>
	<rect x="313.024" y="281.948" style="fill:#FFDB57;" width="57.099" height="200.711"/>
	<path style="fill:#FFDB57;" d="M93.159,287.439c-5.582-14.834-16.053-36.5-32.441-47.555c-3.518-2.374-7.606-3.628-11.821-3.628
		c-7.075,0-13.657,3.492-17.604,9.343c-6.535,9.688-3.971,22.89,5.717,29.427c15.28,10.309,36.597,12.472,51.789,12.472
		C90.309,287.498,91.764,287.479,93.159,287.439z"/>
	<path style="fill:#FFDB57;" d="M83.087,338.986l13.096-19.414c-14.55,5.862-33.7,15.92-43.873,31.001
		c-3.166,4.694-4.315,10.34-3.236,15.898c0.941,4.845,3.478,9.113,7.22,12.226l26.79-39.71L83.087,338.986z"/>
	<path style="fill:#FFDB57;" d="M164.063,218.961c-3.066-1.645-6.466-2.519-9.961-2.519c-7.075,0-13.655,3.493-17.604,9.345
		c-9.999,14.82-12.522,36.157-12.498,52.553L164.063,218.961z"/>
</g>
<g>
	
		<rect x="49.221" y="392.049" transform="matrix(-0.5593 0.829 -0.829 -0.5593 501.0471 578.2825)" style="fill:#F7434C;" width="95.167" height="60.561"/>
	
		<rect x="188.915" y="194.157" transform="matrix(0.829 0.5593 -0.5593 0.829 172.2056 -81.397)" style="fill:#F7434C;" width="60.561" height="93.437"/>
</g>
<rect x="123.627" y="300.945" transform="matrix(0.5593 -0.829 0.829 0.5593 -204.842 277.1466)" style="fill:#FFDB57;" width="69.211" height="60.559"/>
<g>
</g>
<g>
</g>
<g>
</g>
<g>
</g>
<g>
</g>
<g>
</g>
<g>
</g>
<g>
</g>
<g>
</g>
<g>
</g>
<g>
</g>
<g>
</g>
<g>
</g>
<g>
</g>
<g>
</g>
</svg>
